<?xml version="1.0" encoding="UTF-8" standalone="no"?>
<!-- Created with Inkscape (http://www.inkscape.org/) -->

<svg
   xmlns:dc="http://purl.org/dc/elements/1.1/"
   xmlns:cc="http://creativecommons.org/ns#"
   xmlns:rdf="http://www.w3.org/1999/02/22-rdf-syntax-ns#"
   xmlns:svg="http://www.w3.org/2000/svg"
   xmlns="http://www.w3.org/2000/svg"
   xmlns:sodipodi="http://sodipodi.sourceforge.net/DTD/sodipodi-0.dtd"
   xmlns:inkscape="http://www.inkscape.org/namespaces/inkscape"
   width="69.497688mm"
   height="62.430939mm"
   viewBox="0 0 69.497688 62.430939"
   version="1.1"
   id="svg2933"
   inkscape:version="0.92.2 2405546, 2018-03-11"
   sodipodi:docname="sqla-filter.ico.svg">
  <defs
     id="defs2927" />
  <sodipodi:namedview
     id="base"
     pagecolor="#ffffff"
     bordercolor="#666666"
     borderopacity="1.0"
     inkscape:pageopacity="0.0"
     inkscape:pageshadow="2"
     inkscape:zoom="1.979899"
     inkscape:cx="150.88597"
     inkscape:cy="57.637863"
     inkscape:document-units="mm"
     inkscape:current-layer="layer1"
     showgrid="false"
     fit-margin-top="1"
     fit-margin-left="1"
     fit-margin-right="1"
     fit-margin-bottom="1"
     inkscape:window-width="1920"
     inkscape:window-height="1016"
     inkscape:window-x="1920"
     inkscape:window-y="27"
     inkscape:window-maximized="1" />
  <metadata
     id="metadata2930">
    <rdf:RDF>
      <cc:Work
         rdf:about="">
        <dc:format>image/svg+xml</dc:format>
        <dc:type
           rdf:resource="http://purl.org/dc/dcmitype/StillImage" />
        <dc:title></dc:title>
      </cc:Work>
    </rdf:RDF>
  </metadata>
  <g
     inkscape:label="Layer 1"
     inkscape:groupmode="layer"
     id="layer1"
     transform="translate(-96.030914,-126.68929)">
    <path
       inkscape:connector-curvature="0"
       style="display:inline;fill:#000000;fill-opacity:1;stroke:none;stroke-width:3.00442004;stroke-linejoin:round;stroke-miterlimit:4;stroke-dasharray:none;stroke-opacity:1"
       d="m 133.54031,127.68929 a 9.4661188,15.881298 0 0 0 -9.46195,15.72514 l -27.047446,32.97938 27.122896,11.59878 v 0.12764 l 0.14934,-0.0641 0.14935,0.0641 v -0.12764 l 27.12289,-11.59878 -0.12661,-0.15451 -26.89655,-32.7949 a 8.9928123,15.087233 0 0 1 8.98808,-14.96084 8.9928123,15.087233 0 0 1 8.99377,15.0828 9.4661188,15.881298 0 0 0 3.39824,12.15274 9.4661188,15.881298 0 0 0 7.60057,3.47576 v 4.53461 a 0.15001501,0.15001501 0 0 0 0.15038,0.14883 h 10.69702 a 0.15001501,0.15001501 0 0 0 0.14831,-0.14883 v -9.941 a 0.15001501,0.15001501 0 0 0 -0.14831,-0.15038 h -10.69702 a 0.15001501,0.15001501 0 0 0 -0.15038,0.15038 v 4.60386 a 8.9928123,15.087233 0 0 1 -7.29671,-3.28301 8.9928123,15.087233 0 0 1 -3.22875,-11.54451 9.4661188,15.881298 0 0 0 -9.46712,-15.87552 z m -9.3865,16.10858 v 43.86709 L 97.515124,176.27444 Z m 0.29869,0 26.63868,32.47657 -26.63868,11.39052 z m 29.38115,10.14098 h 10.39626 v 9.64024 h -10.39626 z"
       id="path1569" />
  </g>
</svg>
